<svg xmlns="http://www.w3.org/2000/svg" viewBox="0 0 64 64">
  <rect width="64" height="64" rx="14" fill="#171717"/>
  <path d="M24.8 47.5Q19.6 48.3 17.6 51.2Q17.9 50.0 16.9 38.7Q12.1 40.5 10.1 44.9Q10.7 42.6 14.1 30.7Q9.0 30.1 5.9 33.9Q6.8 31.6 15.3 22.3Q11.1 19.4 7.9 20.0Q8.8 18.8 20.2 15.4Q17.8 10.9 17.3 7.3Q17.9 8.0 27.8 11.5Q27.6 6.4 32.0 1.0Q32.0 3.7 36.2 11.5Q38.5 6.9 46.7 7.3Q46.1 8.0 43.8 15.4Q47.9 12.4 56.1 20.0Q55.2 18.8 48.7 22.3Q53.7 21.5 58.1 33.9Q57.2 31.6 49.9 30.7Q54.8 32.3 53.9 44.9Q53.3 42.6 47.1 38.7Q50.7 42.3 46.4 51.2Q46.1 50.0 41.0 44.6L39.2 47.5Z" fill="#ececec"/>
  <path d="M22.5 27L26 22.5L28.5 26.5L32 20.5L35.5 26.5L38 22.5L41.5 27L41.5 34Q40.5 43 32 47Q23.5 43 22.5 34Z" fill="#171717"/>
  <path d="M25.5 30L29.5 31.5M38.5 30L34.5 31.5" stroke="#ececec" stroke-width="1.9" stroke-linecap="round"/>
  <path d="M26.5 40.5Q32 35.5 37.5 40.5Q34.5 39.5 33.6 40.8L32 54L30.4 40.8Q29.5 39.5 26.5 40.5Z" fill="#ececec"/>
</svg>
